<svg>
  <defs>

    <g id="shape-hamburger">
      <rect class="cls-1" width="16" height="1.5"/>
      <rect class="cls-1" y="5.25" width="16" height="1.5"/>
      <rect class="cls-1" y="10.5" width="16" height="1.5"/>
    </g>

    <g id="shape-user">
      <path class="cls-1" d="M14.65,16A7.25,7.25,0,0,0,7.37,8.89,7.32,7.32,0,0,0,0,16Z"/>
      <path class="cls-1" d="M7.37,0a3.87,3.87,0,0,0-3.9,3.81A3.94,3.94,0,0,0,7.37,7.7a3.86,3.86,0,0,0,3.8-3.89A3.79,3.79,0,0,0,7.37,0Z"/>
    </g>

    <g id="shape-alarm">
      <path class="cls-1" d="M12.24,10.33a8.6,8.6,0,0,1-.53-1.9V5.11a5.08,5.08,0,0,0-4-5h0a4.24,4.24,0,0,0-1.92,0h0a5.08,5.08,0,0,0-4,5V8.43a8.6,8.6,0,0,1-.53,1.9A4.3,4.3,0,0,1,0,11.94v.84H13.43v-.84A4.34,4.34,0,0,1,12.24,10.33Z"/>
      <path class="cls-1" d="M4.49,13.9a2.23,2.23,0,0,0,4.45,0Z"/>
    </g>

    <g id="shape-help">
      <path class="cls-1" d="M9,1A8,8,0,1,1,1,9,8,8,0,0,1,9,1M9,0a9,9,0,1,0,9,9A9,9,0,0,0,9,0Z"/>
      <path class="cls-1" d="M9.54,13.66a.9.9,0,0,1-.67.24.9.9,0,0,1-.67-.24.81.81,0,0,1-.23-.6.85.85,0,0,1,.24-.63.89.89,0,0,1,.66-.24.86.86,0,0,1,.66.25.88.88,0,0,1,0,1.22Z"/>
      <path class="cls-1" d="M10.83,8.77l-.81.8A2.17,2.17,0,0,0,9.57,11H8.08a3.86,3.86,0,0,1,.21-1.4,3.78,3.78,0,0,1,.86-1.14A7.05,7.05,0,0,0,10,7.58a1.61,1.61,0,0,0,.26-.87,1.33,1.33,0,0,0-.3-.94A1.19,1.19,0,0,0,9,5.44a1.32,1.32,0,0,0-.92.32,1.11,1.11,0,0,0-.34.86H6.17A2.31,2.31,0,0,1,7,4.78,3,3,0,0,1,9,4.1a2.94,2.94,0,0,1,2.06.67,2.38,2.38,0,0,1,.74,1.88A3.08,3.08,0,0,1,10.83,8.77Z"/>
    </g>

  </defs>
</svg>

