<svg xmlns="http://www.w3.org/2000/svg" viewBox="0 0 18 18"><defs><style>.cls-1{fill:#fff;}</style></defs><title>help</title><g id="Layer_2" data-name="Layer 2"><g id="Layer_2-2" data-name="Layer 2"><path class="cls-1" d="M9,1A8,8,0,1,1,1,9,8,8,0,0,1,9,1M9,0a9,9,0,1,0,9,9A9,9,0,0,0,9,0Z"/><path class="cls-1" d="M9.54,13.66a.9.9,0,0,1-.67.24.9.9,0,0,1-.67-.24.81.81,0,0,1-.23-.6.85.85,0,0,1,.24-.63.89.89,0,0,1,.66-.24.86.86,0,0,1,.66.25.88.88,0,0,1,0,1.22Z"/><path class="cls-1" d="M10.83,8.77l-.81.8A2.17,2.17,0,0,0,9.57,11H8.08a3.86,3.86,0,0,1,.21-1.4,3.78,3.78,0,0,1,.86-1.14A7.05,7.05,0,0,0,10,7.58a1.61,1.61,0,0,0,.26-.87,1.33,1.33,0,0,0-.3-.94A1.19,1.19,0,0,0,9,5.44a1.32,1.32,0,0,0-.92.32,1.11,1.11,0,0,0-.34.86H6.17A2.31,2.31,0,0,1,7,4.78,3,3,0,0,1,9,4.1a2.94,2.94,0,0,1,2.06.67,2.38,2.38,0,0,1,.74,1.88A3.08,3.08,0,0,1,10.83,8.77Z"/></g></g></svg>