<svg xmlns="http://www.w3.org/2000/svg" viewBox="0 0 13.43 16"><defs><style>.cls-1{fill:#fff;}</style></defs><title>notifications</title><g id="Layer_2" data-name="Layer 2"><g id="Layer_2-2" data-name="Layer 2"><path class="cls-1" d="M12.24,10.33a8.6,8.6,0,0,1-.53-1.9V5.11a5.08,5.08,0,0,0-4-5h0a4.24,4.24,0,0,0-1.92,0h0a5.08,5.08,0,0,0-4,5V8.43a8.6,8.6,0,0,1-.53,1.9A4.3,4.3,0,0,1,0,11.94v.84H13.43v-.84A4.34,4.34,0,0,1,12.24,10.33Z"/><path class="cls-1" d="M4.49,13.9a2.23,2.23,0,0,0,4.45,0Z"/></g></g></svg>